PathFileType	4	(X/Y/Z)	D:\TRACE\v60_Jaco2_6-2-23\JustBodyDRS_Motion2_8-platform.trc
DataRate	CameraRate	NumFrames	NumMarkers	Units	OrigDataRate	OrigDataStartFrame	OrigNumFrames
100.00	100.00	      54	5	mm	100.00	3458	      6914
Frame#	Time	Left_Front			Right_Front			Left_Aft			Right_Aft			Post			
		X1	Y1	Z1	X2	Y2	Z2	X3	Y3	Z3	X4	Y4	Z4	X5	Y5	Z5	

3458	34.570	-749.90887	57.02563	-626.15338	820.05792	58.02659	-631.03754	-657.94391	-26.37554	506.33633	783.02966	-29.91221	514.44220	36.89863	1375.35034	-854.41876	
3459	34.580	-749.87762	58.21674	-625.86310	820.02802	59.02486	-630.96838	-658.04828	-26.89915	506.41049	782.87915	-30.71055	514.80273	36.65351	1376.59021	-851.99872	
3460	34.590	-749.89355	58.81775	-625.48041	820.11249	59.66528	-630.65179	-658.16724	-27.48919	506.52893	783.90021	-30.01422	515.55933	36.39977	1377.94214	-849.58649	
3461	34.600	-749.87622	59.17521	-625.26086	820.18634	60.30771	-630.15527	-658.11511	-28.16112	506.57068	784.01349	-30.46887	515.61285	37.00561	1379.11829	-847.28607	
3462	34.610	-750.04742	60.36866	-624.83234	819.98157	61.16630	-630.00549	-658.13434	-28.70108	506.73343	783.53363	-31.79522	515.17358	37.06540	1379.91675	-845.12183	
3463	34.620	-750.07947	61.60669	-624.54504	820.03802	62.48191	-629.75134	-658.05780	-29.29924	507.01993	783.25928	-33.60179	515.73987	36.76324	1381.45276	-843.48376	
3464	34.630	-750.23315	62.41459	-624.15100	819.93433	63.46011	-629.27521	-658.20203	-29.99581	507.20380	783.20734	-31.93196	518.85760	37.17352	1382.96411	-841.67285	
3465	34.640	-750.36371	63.06734	-623.82605	819.65540	63.93084	-629.04083	-658.48303	-30.48182	507.28906	783.60828	-30.42291	520.77386	35.93325	1384.03857	-840.19733	
3466	34.650	-750.74207	63.94224	-623.70374	819.25891	64.99902	-628.87543	-658.77655	-31.06375	507.41711	784.32892	-32.38179	518.95502	36.24859	1385.19324	-837.91888	
3467	34.660	-750.92200	64.64837	-623.43762	819.12286	65.99787	-628.50592	-658.91351	-31.61585	507.58307	784.08234	-33.05462	518.77844	35.68384	1386.14282	-835.96008	
3468	34.670	-751.30127	65.73206	-623.34637	818.73505	66.64223	-628.31854	-659.43976	-32.42648	507.89676	783.66345	-33.87307	518.76825	35.52594	1386.88391	-833.58624	
3469	34.680	-751.57111	66.36370	-623.07324	818.36017	67.00813	-628.33264	-659.77136	-32.74446	508.14020	783.13214	-34.49939	518.48755	34.75584	1387.85962	-831.47235	
3470	34.690	-751.87921	66.75545	-622.87408	818.12396	67.56673	-628.18494	-659.91431	-32.92574	508.23129	782.21747	-34.84461	518.62512	34.64167	1388.49414	-829.51740	
3471	34.700	-752.50293	67.02539	-622.57080	817.56696	68.24612	-628.26410	-660.53284	-33.30634	508.15967	781.30804	-35.19578	518.88770	34.31467	1388.78650	-827.79041	
3472	34.710	-752.66254	67.39015	-622.38391	817.46313	68.48642	-627.35468	-660.96857	-33.76208	508.21960	780.96655	-35.84681	518.70386	34.26598	1389.42126	-826.80725	
3473	34.720	-752.98572	68.09943	-622.07538	817.07190	68.88549	-627.14551	-661.21399	-34.14938	508.31931	781.28400	-36.75519	518.04303	33.76191	1390.17285	-826.42841	
3474	34.730	-753.30627	68.60429	-621.89728	816.47034	69.32025	-627.26288	-661.41895	-34.25315	508.31161	781.04120	-37.08896	518.15991	33.55388	1390.90234	-826.12122	
3475	34.740	-753.71649	69.02160	-621.92499	815.98773	69.94996	-626.98163	-662.19122	-34.66424	508.30438	780.39337	-37.43859	518.18335	32.79204	1391.61462	-826.61627	
3476	34.750	-754.40588	69.78065	-621.86450	815.43506	70.35227	-626.81952	-662.56354	-35.10360	508.44681	779.09662	-37.58999	518.78143	32.32599	1392.31348	-826.46637	
3477	34.760	-754.92224	70.12119	-621.81293	815.04504	70.66167	-626.66888	-663.03845	-35.45805	508.66965	778.90320	-38.24870	518.51764	31.94535	1393.11133	-825.84241	
3478	34.770	-755.49756	70.73151	-621.74701	814.56445	70.93658	-626.66437	-663.52856	-35.94952	508.68045	778.81671	-38.58595	518.50122	32.05708	1393.34937	-824.70392	
3479	34.780	-755.81445	71.07383	-621.51953	814.12421	71.53411	-626.37598	-664.05786	-36.13717	508.79703	778.57758	-38.84626	518.53656	31.36063	1393.98584	-823.49963	
3480	34.790	-756.27606	71.24427	-621.15424	813.92682	71.79358	-626.02777	-664.25073	-36.33710	508.95419	778.05737	-39.23655	518.40521	30.40929	1394.29993	-822.17084	
3481	34.800	-756.69604	71.55905	-621.03583	813.03149	72.00008	-626.01416	-664.98993	-36.49783	508.95599	777.25500	-39.43695	518.26672	29.83217	1394.63635	-820.18579	
3482	34.810	-757.45673	71.56253	-621.00732	812.53528	72.40532	-625.94366	-665.60425	-36.71074	508.98724	776.07709	-39.29914	518.77490	29.54340	1394.79480	-818.65125	
3483	34.820	-758.20538	71.69637	-620.93469	812.04089	72.58556	-625.93439	-666.11169	-36.84755	509.01559	775.73029	-40.16464	518.25903	28.76243	1394.95313	-817.05194	
3484	34.830	-758.75037	71.81883	-621.03986	811.38116	72.57277	-625.83020	-666.76001	-36.95898	508.97913	775.23187	-40.49002	517.90967	27.91226	1395.11072	-815.93433	
3485	34.840	-759.43793	72.08239	-621.08728	810.26959	72.66254	-626.50885	-667.37885	-36.84332	508.97910	774.46167	-41.12919	517.33575	27.34886	1395.23230	-815.81213	
3486	34.850	-759.97620	72.09466	-620.93011	809.76129	72.82592	-626.41510	-667.91949	-36.84807	509.00687	773.49530	-41.07078	516.90027	26.84158	1395.38245	-816.22369	
3487	34.860	-760.44598	71.97755	-620.83075	809.33838	72.89960	-626.18860	-668.73444	-36.91474	508.91199	773.26709	-41.88448	516.11334	26.40763	1395.52759	-817.34399	
3488	34.870	-761.10669	71.99218	-620.83215	808.96527	72.78894	-625.99713	-669.36176	-37.02822	508.95969	772.92920	-41.21990	516.85504	25.85853	1395.47620	-818.68530	
3489	34.880	-761.92419	72.05008	-620.88531	808.14502	72.62799	-626.03723	-669.91711	-36.89553	508.94952	772.18591	-40.18275	517.92084	24.92692	1395.50146	-819.85730	
3490	34.890	-762.71863	72.01205	-621.01056	807.21838	72.55312	-626.10559	-670.67242	-36.98136	509.06235	771.22974	-40.28377	517.81427	24.27983	1395.51477	-820.80176	
3491	34.900	-763.47345	72.00632	-620.92413	806.48132	72.47770	-626.06097	-671.43036	-37.00697	509.07401	770.64270	-40.18116	517.59637	23.81230	1395.51868	-821.35394	
3492	34.910	-764.01501	71.94777	-620.85712	806.01178	72.53428	-626.09595	-671.98926	-36.80805	509.32452	769.89130	-39.96760	517.61017	22.99919	1395.39392	-821.67853	
3493	34.920	-764.73999	71.77340	-620.87378	805.42877	72.51435	-626.04834	-672.73132	-36.85057	509.41028	769.04852	-39.74583	517.77429	22.21572	1395.24780	-821.54706	
3494	34.930	-765.66656	71.42401	-620.94037	804.48431	72.23788	-626.16241	-673.40906	-36.70657	509.70352	768.43689	-39.46793	517.99066	21.18945	1394.78577	-821.02661	
3495	34.940	-766.47223	71.26170	-621.23010	803.48431	71.87917	-626.35394	-673.83148	-36.75101	509.83755	768.09302	-39.19710	518.15710	20.53082	1394.18518	-820.43964	
3496	34.950	-767.16364	71.31602	-621.33075	802.91998	71.70609	-626.39600	-675.17554	-36.12272	508.73859	767.21246	-39.28246	518.17303	19.46706	1393.90381	-819.70886	
3497	34.960	-767.70990	71.10330	-621.46014	802.17761	71.56181	-626.46198	-675.92236	-36.04199	508.71637	765.90778	-39.54923	518.00525	18.97535	1393.36011	-819.63049	
3498	34.970	-768.72168	70.37175	-621.22498	801.46857	71.18853	-626.32977	-676.76581	-35.91342	508.85550	764.59235	-39.66385	517.63867	18.03362	1393.06494	-820.03009	
3499	34.980	-769.81537	69.75944	-621.47284	800.33539	70.29237	-626.78137	-677.76514	-35.72421	508.78137	763.64587	-39.41509	517.20349	17.26052	1392.62305	-820.94019	
3500	34.990	-770.70728	69.11191	-621.86908	799.41681	70.20789	-626.93750	-678.66296	-35.24519	508.76886	763.18213	-38.86838	517.47510	16.29974	1392.19385	-822.58472	
3501	35.000	-771.26794	68.90623	-621.90161	798.83636	69.99553	-626.82294	-679.54620	-34.96526	508.66409	762.63202	-37.81188	518.86072	15.53733	1391.38733	-824.30811	
3502	35.010	-772.13977	68.85322	-621.77997	797.78473	69.34071	-627.09473	-680.26379	-34.77544	508.56946	761.44690	-37.22135	519.21222	14.97053	1391.06128	-826.63049	
3503	35.020	-773.24677	68.35892	-621.81152	796.82703	68.72575	-627.12903	-681.17029	-34.21897	508.61618	760.85596	-36.80056	518.02283	14.09919	1390.50464	-828.61255	
3504	35.030	-774.11591	67.77699	-622.47357	796.21417	68.37795	-627.32178	-682.11340	-33.84280	508.38269	760.25873	-36.07035	517.30139	12.82767	1389.71765	-830.46674	
3505	35.040	-775.08197	66.78101	-622.61700	795.18158	67.49004	-627.55688	-682.96924	-33.48147	508.16528	758.97760	-36.00531	517.59985	12.05526	1388.95520	-831.95898	
3506	35.050	-775.73907	66.33276	-622.83875	793.97687	66.82953	-627.96857	-684.13824	-33.03194	508.00479	757.86560	-35.32755	517.56982	10.84059	1387.93103	-833.05042	
3507	35.060	-776.87701	65.89908	-622.91986	793.25586	66.29776	-628.02246	-684.91290	-32.65794	507.91724	757.03961	-34.95878	517.39117	9.92415	1386.99377	-834.07092	
3508	35.070	-778.12347	65.25140	-623.00946	792.12830	65.53762	-628.32141	-685.80182	-31.91471	507.91681	756.12354	-34.26777	517.29333	9.02117	1386.03613	-835.14130	
3509	35.080	-778.78119	64.47607	-623.43933	791.28320	65.17577	-628.45313	-686.79388	-31.21239	507.75119	755.47858	-33.63110	517.21680	8.18383	1385.19458	-835.88214	
3510	35.090	-779.85065	63.50267	-623.43286	790.14136	64.09813	-628.72626	-688.01776	-30.81899	507.71512	754.29065	-33.28074	517.11969	6.88285	1384.18445	-837.19830	
3511	35.100	-780.90662	62.74131	-623.91833	789.27368	63.34526	-629.05731	-688.79712	-30.32516	507.67468	753.09723	-32.75465	517.14386	5.79080	1383.03308	-838.80664	
